<svg width="48" height="30" viewBox="0 0 48 30" fill="none" xmlns="http://www.w3.org/2000/svg">
<path d="M39.8825 7.89572L41.6388 3.33403C41.6388 3.33403 42.136 2.49212 41.0029 1.53468C39.8696 0.575372 39.4657 1.78883 39.3015 1.89502C39.1396 2.00281 37.5363 3.99213 37.3778 4.72604C37.2193 5.46172 37.2193 5.46172 37.2193 5.46172C37.2193 5.46172 35.3403 2.80158 34.3552 2.16448C33.3656 1.52583 33.2857 1.29461 33.2631 1.06096C33.2401 0.823667 32.7613 0.670718 32.7455 1.09899C32.7294 1.52551 32.6928 2.33371 32.914 2.83869C33.1395 3.34335 33.518 4.87936 33.5066 5.35449C33.4951 5.8295 34.4257 7.08963 34.4485 7.32504C34.4713 7.56045 34.6056 8.35419 34.8268 8.85917C35.0527 9.36559 32.84 12.797 32.5393 13.2952C32.2404 13.7895 32.0353 13.4734 31.6795 13.3584C31.3191 13.24 29.8733 13.2521 29.2438 13.2984C28.6122 13.3448 19.6229 10.1194 11.0232 10.326C11.0232 10.326 10.8179 9.39259 11.6437 8.38356C12.4738 7.3741 11.1309 6.05204 10.3237 6.11136C9.52078 6.17035 8.82739 6.17235 8.1912 6.78752C7.55717 7.40418 7.39525 8.12556 7.15133 8.57249C6.90491 9.01593 5.14614 14.7379 5.44942 17.2768C5.7522 19.812 4.3451 18.9669 3.84921 18.9563C3.35331 18.9457 2.8084 18.7016 2.21075 19.6939C1.61325 20.6863 1.04964 23.8082 1.04964 23.8082C1.04964 23.8082 0.34242 26.0864 0.353785 26.7969C0.36528 27.5074 0.353446 29.1662 2.28298 28.7891C4.21201 28.4083 4.06834 28.6579 4.72874 28.0409C5.38899 27.4223 7.48994 23.5231 7.62441 23.0861C7.76336 22.6505 8.15097 23.0944 8.39066 23.1746C8.62999 23.2512 11.2525 24.0539 13.85 22.8187C13.85 22.8187 15.3207 23.0419 17.7952 21.7233C17.7952 21.7233 24.4813 23.8854 30.8804 23.6522C30.8804 23.6522 35.3292 24.176 37.7216 26.2066C40.1182 28.2349 39.8672 28.6317 40.9051 28.6042C41.945 28.5749 41.9358 28.4797 42.2255 28.5072C42.5196 28.5327 42.8728 29.2162 43.7463 29.2479C44.6151 29.2782 45.4569 29.5983 46.5012 29.0455C47.548 28.4944 46.7203 28.3199 46.1864 28.1672C45.6505 28.0165 44.1616 26.9892 43.8812 26.4886C43.6029 25.9878 42.2005 24.0528 41.87 22.4192C41.5372 20.784 41.4279 18.4698 40.7827 17.1905C40.1397 15.911 40.4611 15.6486 40.6781 15.4932C40.8925 15.3345 41.2846 15.7798 42.2423 15.5177C43.2003 15.259 43.8473 14.5491 44.0897 14.2923C44.3323 14.0373 44.9672 13.6595 44.1455 12.109C43.3237 10.5567 43.4675 10.2619 42.7857 9.79073C42.1039 9.3196 42.0261 8.51828 39.8825 7.89572Z" fill="#6F8667"/>
</svg>
