<svg width="27" height="25" viewBox="0 0 27 25" fill="none" xmlns="http://www.w3.org/2000/svg">
<path d="M23.6249 10.4159C23.6249 17.7076 13.4999 23.9576 13.4999 23.9576C13.4999 23.9576 3.37489 17.7076 3.37489 10.4159C3.37489 7.92949 4.44163 5.54492 6.34044 3.78677C8.23924 2.02861 10.8146 1.04089 13.4999 1.04089C16.1852 1.04089 18.7605 2.02861 20.6594 3.78677C22.5582 5.54492 23.6249 7.92949 23.6249 10.4159Z" stroke="black" stroke-width="1.99832" stroke-linecap="round" stroke-linejoin="round"/>
<path d="M13.4999 13.5417C15.3639 13.5417 16.8749 12.1426 16.8749 10.4167C16.8749 8.69086 15.3639 7.29175 13.4999 7.29175C11.6359 7.29175 10.1249 8.69086 10.1249 10.4167C10.1249 12.1426 11.6359 13.5417 13.4999 13.5417Z" stroke="black" stroke-width="1.99832" stroke-linecap="round" stroke-linejoin="round"/>
</svg>
