<svg width="29" height="24" viewBox="0 0 29 24" fill="none" xmlns="http://www.w3.org/2000/svg">
<path d="M27.2065 17.4408V20.7466C27.208 21.0535 27.1339 21.3572 26.989 21.6384C26.8441 21.9196 26.6315 22.172 26.365 22.3795C26.0984 22.5869 25.7838 22.7449 25.4411 22.8432C25.0984 22.9415 24.7353 22.978 24.3751 22.9504C20.3783 22.582 16.5391 21.4233 13.166 19.5675C10.0278 17.8757 7.36715 15.6184 5.37299 12.956C3.17792 10.0813 1.81188 6.80834 1.38554 3.4023C1.35308 3.09758 1.39577 2.79047 1.51088 2.50051C1.62599 2.21056 1.81101 1.94411 2.05414 1.71814C2.29728 1.49217 2.59321 1.31163 2.9231 1.18801C3.25299 1.06439 3.6096 1.00039 3.97024 1.00011H7.86677C8.4971 0.994844 9.10819 1.18421 9.58613 1.53292C10.0641 1.88163 10.3762 2.36588 10.4645 2.89541C10.6289 3.95333 10.9339 4.99207 11.3736 5.99182C11.5484 6.38622 11.5862 6.81486 11.4826 7.22694C11.379 7.63903 11.1384 8.01728 10.7892 8.31688L9.13963 9.71632C10.9886 12.475 13.681 14.7592 16.9327 16.3279L18.5822 14.9284C18.9354 14.6322 19.3812 14.428 19.8669 14.3401C20.3527 14.2522 20.8579 14.2843 21.3228 14.4326C22.5012 14.8056 23.7256 15.0644 24.9725 15.2039C25.6035 15.2794 26.1797 15.549 26.5916 15.9615C27.0035 16.3739 27.2223 16.9004 27.2065 17.4408Z" stroke="black" stroke-width="1.99832" stroke-linecap="round" stroke-linejoin="round"/>
</svg>
