<svg width="28" height="24" viewBox="0 0 28 24" fill="none" xmlns="http://www.w3.org/2000/svg">
<path d="M6.7554 1.98975L3.37769 5.96965V19.8993C3.37769 20.4271 3.61493 20.9332 4.03723 21.3064C4.45952 21.6796 5.03228 21.8892 5.6295 21.8892H21.3922C21.9894 21.8892 22.5621 21.6796 22.9844 21.3064C23.4067 20.9332 23.644 20.4271 23.644 19.8993V5.96965L20.2663 1.98975H6.7554Z" stroke="black" stroke-width="1.99832" stroke-linecap="round" stroke-linejoin="round"/>
<path d="M3.37769 5.96973H23.644" stroke="black" stroke-width="1.99832" stroke-linecap="round" stroke-linejoin="round"/>
<path d="M18.0144 9.94971C18.0144 11.0052 17.54 12.0175 16.6954 12.7639C15.8508 13.5103 14.7053 13.9296 13.5108 13.9296C12.3164 13.9296 11.1709 13.5103 10.3263 12.7639C9.48169 12.0175 9.0072 11.0052 9.0072 9.94971" stroke="black" stroke-width="1.99832" stroke-linecap="round" stroke-linejoin="round"/>
</svg>
